<svg xmlns="http://www.w3.org/2000/svg" viewBox="0 0 1200 630" font-family="'JetBrains Mono','DejaVu Sans Mono',monospace">
  <defs>
    <linearGradient id="g" x1="0" y1="0" x2="1" y2="0">
      <stop offset="0" stop-color="#5C78FF"/><stop offset="0.5" stop-color="#28B9FF"/><stop offset="1" stop-color="#A52AFF"/>
    </linearGradient>
    <radialGradient id="bg" cx="22%" cy="28%" r="60%">
      <stop offset="0" stop-color="#1b2740"/><stop offset="1" stop-color="#121212"/>
    </radialGradient>
  </defs>
  <rect width="1200" height="630" fill="url(#bg)"/>
  <rect x="14" y="14" width="1172" height="602" rx="22" fill="none" stroke="#2c2c36" stroke-width="2"/>

  <!-- JARVIS badge -->
  <g transform="translate(150,150)">
    <circle r="62" fill="#16243a"/>
    <circle r="54" fill="none" stroke="url(#g)" stroke-width="4" stroke-dasharray="3 9"/>
    <circle r="45" fill="none" stroke="#28B9FF" stroke-opacity="0.55" stroke-width="2.5" stroke-dasharray="40 30"/>
    <circle r="37" fill="#0e1f3d" stroke="url(#g)" stroke-width="2"/>
    <g fill="#5AC8FF">
      <rect x="-16" y="-9" width="3.2" height="8" rx="1.6"/><rect x="-9" y="-13" width="3.2" height="16" rx="1.6"/>
      <rect x="-1.6" y="-17" width="3.2" height="22" rx="1.6"/><rect x="6" y="-13" width="3.2" height="16" rx="1.6"/>
      <rect x="13" y="-9" width="3.2" height="8" rx="1.6"/>
    </g>
    <text x="0" y="22" text-anchor="middle" font-size="16" font-weight="800" letter-spacing="2" fill="#eaf6ff">JARVIS</text>
  </g>

  <text x="244" y="132" font-size="20" letter-spacing="3" fill="#9aa0b4">DATA &amp; AI · PLAIN ENGLISH</text>
  <text x="240" y="186" font-size="22" fill="#666">~/blog ❯ home</text>

  <text x="90" y="320" font-size="64" font-weight="800" fill="url(#g)">Data &amp; AI Engineering,</text>
  <text x="90" y="392" font-size="64" font-weight="800" fill="url(#g)">Simply Explained</text>
  <text x="90" y="448" font-size="27" fill="#cdd0dd">Practical, example-driven guides to data and AI engineering.</text>

  <rect x="90" y="486" width="240" height="40" rx="20" fill="#13243a" stroke="#28B9FF" stroke-width="1.5"/><text x="112" y="512" font-size="20" font-weight="700" fill="#5AC8FF">Data Engineering</text>
  <rect x="346" y="486" width="200" height="40" rx="20" fill="#241a30" stroke="#BA5AFF" stroke-width="1.5"/><text x="368" y="512" font-size="20" font-weight="700" fill="#d6a8ff">AI Engineering</text>

  <text x="90" y="592" font-size="20" fill="#5AC8FF">Delta Lake · Apache Iceberg · Apache Hudi · Kafka · dbt</text>
</svg>
