<svg xmlns="http://www.w3.org/2000/svg" viewBox="0 0 1200 630" font-family="'JetBrains Mono','DejaVu Sans Mono',monospace">
  <defs>
    <linearGradient id="g" x1="0" y1="0" x2="1" y2="0"><stop offset="0" stop-color="#5C78FF"/><stop offset="0.5" stop-color="#28B9FF"/><stop offset="1" stop-color="#A52AFF"/></linearGradient>
    <radialGradient id="bg" cx="20%" cy="25%" r="62%"><stop offset="0" stop-color="#1b2740"/><stop offset="1" stop-color="#121212"/></radialGradient>
    <linearGradient id="water" x1="0" y1="0" x2="0" y2="1"><stop offset="0" stop-color="#b45309"/><stop offset="0.5" stop-color="#9ca3af"/><stop offset="1" stop-color="#f0b429"/></linearGradient>
  </defs>
  <rect width="1200" height="630" fill="url(#bg)"/>
  <rect x="14" y="14" width="1172" height="602" rx="22" fill="none" stroke="#2c2c36" stroke-width="2"/>

  <text x="90" y="118" font-size="20" letter-spacing="3" fill="#5AC8FF">FOUNDATIONS · START HERE · DATA ENGINEERING</text>
  <text x="90" y="240" font-size="88" font-weight="800" fill="url(#g)">Data Lake &amp;</text>
  <text x="90" y="334" font-size="88" font-weight="800" fill="url(#g)">Data Lakehouse</text>
  <text x="90" y="398" font-size="27" fill="#cdd0dd">How Parquet stores your data on disk, why plain lakes</text>
  <text x="90" y="434" font-size="27" fill="#cdd0dd">break in production, and how Delta Lake makes them reliable.</text>

  <g transform="translate(90,488)">
    <rect x="0" y="0" width="150" height="48" rx="24" fill="#13243a" stroke="#28B9FF" stroke-width="1.5"/><text x="24" y="31" font-size="20" font-weight="700" fill="#5AC8FF">Parquet</text>
    <rect x="166" y="0" width="186" height="48" rx="24" fill="#16203f" stroke="#5C78FF" stroke-width="1.5"/><text x="190" y="31" font-size="20" font-weight="700" fill="#9db0ff">Delta Lake</text>
    <rect x="378" y="0" width="170" height="48" rx="24" fill="#0d1f18" stroke="#34d399" stroke-width="1.5"/><text x="402" y="31" font-size="20" font-weight="700" fill="#34d399">Lakehouse</text>
  </g>

  <text x="90" y="592" font-size="20" fill="#9aa0b4">Data &amp; AI Engineering, Simply Explained · by Hao Tieu</text>

  <!-- decorative cloud + lake motif, right side -->
  <g transform="translate(880,150)" opacity="0.92">
    <path d="M70 92 a26 26 0 0 1 -6 -44 a26 26 0 0 1 42 -22 a30 30 0 0 1 60 0 a26 26 0 0 1 42 22 a26 26 0 0 1 -6 44 z" fill="#0d1820" stroke="#5AC8FF" stroke-width="2.5"/>
    <text x="124" y="74" font-size="20" text-anchor="middle" fill="#5AC8FF">S3 / ADLS / GCS</text>
    <rect x="34" y="120" width="180" height="150" rx="14" fill="url(#water)" opacity="0.22"/>
    <path d="M34 150 q22 -10 45 0 t45 0 t45 0 t45 0" fill="none" stroke="#b45309" stroke-width="2.5"/>
    <path d="M34 192 q22 -10 45 0 t45 0 t45 0 t45 0" fill="none" stroke="#9ca3af" stroke-width="2.5"/>
    <path d="M34 234 q22 -10 45 0 t45 0 t45 0 t45 0" fill="none" stroke="#f0b429" stroke-width="2.5"/>
  </g>
</svg>
